<svg width="200" height="200" viewBox="0 0 200 200" fill="none" xmlns="http://www.w3.org/2000/svg">
<circle cx="100" cy="100" r="100" fill="#C4C4C4"/>
<path d="M114.228 163.041C113.762 164.508 112.695 165.241 111.028 165.241C109.428 165.241 107.595 164.341 105.528 162.541C107.528 156.675 111.762 147.241 118.228 134.241C124.695 121.175 128.895 111.408 130.828 104.941C131.095 103.875 131.228 103.141 131.228 102.741C131.228 101.741 130.495 100.208 129.028 98.1415L128.228 97.0415L128.428 95.7415C134.095 94.1415 140.362 93.3415 147.228 93.3415L153.328 93.7415C154.062 94.7415 154.628 96.2748 155.028 98.3415C156.095 103.408 156.628 116.441 156.628 137.441C156.628 145.575 157.328 151.308 158.728 154.641C159.262 155.908 159.795 156.541 160.328 156.541C160.862 156.541 162.495 155.875 165.228 154.541L166.528 153.941L168.528 157.541C165.995 160.008 163.162 161.975 160.028 163.441C156.962 164.841 154.128 165.541 151.528 165.541C144.795 165.541 141.428 160.308 141.428 149.841V141.941C139.695 141.541 137.062 141.341 133.528 141.341C129.995 141.341 126.128 141.675 121.928 142.341C118.595 150.075 116.028 156.975 114.228 163.041ZM141.628 135.141L141.728 123.541C141.728 113.408 141.295 106.541 140.428 102.941C139.895 102.941 139.495 103.008 139.228 103.141C137.362 108.275 135.595 112.641 133.928 116.241C132.328 119.775 130.562 123.575 128.628 127.641C126.762 131.641 125.595 134.141 125.128 135.141H141.628Z" fill="black"/>
<path d="M37.5247 97.4H35.6247C35.8914 94.4 37.658 85.6 40.9247 71C44.1914 56.3333 46.2247 45.3667 47.0247 38.1C47.0247 37.0333 46.658 35.7667 45.9247 34.3C45.258 32.7667 44.558 31.5333 43.8247 30.6L42.8247 29.2L43.1247 27.7C46.858 26.5667 53.2914 26 62.4247 26C63.2914 27.6 63.7247 29.9 63.7247 32.9C63.7247 35.8333 62.058 44.1667 58.7247 57.9H59.2247C65.158 57.9 69.3914 55.6667 71.9247 51.2C74.5247 46.6667 76.458 39.0667 77.7247 28.4C82.458 26.8 87.4247 26 92.6247 26C92.758 26.4667 92.7914 27.6 92.7247 29.4C92.7247 31.2 92.3914 33.5333 91.7247 36.4C91.058 39.2 90.058 42.1667 88.7247 45.3C87.458 48.4333 85.558 51.4 83.0247 54.2C80.558 56.9333 77.6914 59.1333 74.4247 60.8C78.2914 74 81.6247 82.6 84.4247 86.6C85.6247 88.2667 86.558 89.1 87.2247 89.1C88.4247 89.1 90.2914 88.5 92.8247 87.3L94.0247 86.7L96.3247 90.4C93.858 92.6667 90.9914 94.5333 87.7247 96C84.5247 97.4667 81.4914 98.2 78.6247 98.2C75.758 98.2 73.4914 97.0667 71.8247 94.8C70.2247 92.5333 68.858 89.7333 67.7247 86.4C66.658 83 65.5247 79 64.3247 74.4C63.1247 69.8 62.3247 66.3333 61.9247 64C61.3247 64.0667 59.758 64.1 57.2247 64.1C53.2914 80.7667 51.3247 91.2 51.3247 95.4C48.7247 96.7333 44.1247 97.4 37.5247 97.4Z" fill="black"/>
<path d="M125.754 113.2C126.346 113.2 127.382 112.756 128.862 111.868L129.602 111.424L131.452 114.162C127.456 118.01 123.608 119.934 119.908 119.934C116.208 119.934 113.026 118.109 110.362 114.458C105.971 118.208 101.038 120.082 95.5619 120.082C91.2699 120.082 87.8412 118.997 85.2759 116.826C82.7599 114.606 81.5019 111.572 81.5019 107.724C81.5019 100.67 86.1145 94.6756 95.3399 89.7423C93.2185 85.6476 92.1579 82.145 92.1579 79.2343C92.1579 75.2876 93.5885 72.229 96.4499 70.0583C99.3112 67.8383 102.691 66.7283 106.588 66.7283C110.485 66.7283 113.347 67.567 115.172 69.2443C117.047 70.8723 117.984 72.7963 117.984 75.0163C117.984 79.1603 114.333 83.7483 107.032 88.7803C109.301 93.1216 111.867 97.4383 114.728 101.73C115.863 100.201 117.096 98.2276 118.428 95.8103C119.809 93.3436 120.623 91.913 120.87 91.5183C123.583 91.913 125.31 92.7516 126.05 94.0343C125.507 94.725 124.299 96.4763 122.424 99.2883C120.599 102.1 119.094 104.246 117.91 105.726C121.807 110.709 124.422 113.2 125.754 113.2ZM92.0099 105.948C92.0099 108.662 92.6265 110.734 93.8599 112.164C95.0932 113.546 96.5979 114.236 98.3739 114.236C100.15 114.236 101.704 113.916 103.036 113.274C104.368 112.633 105.355 111.992 105.996 111.35L106.958 110.388C102.469 103.284 99.3112 97.833 97.4859 94.0343C93.8352 96.945 92.0099 100.916 92.0099 105.948ZM109.77 80.0483C110.263 79.4563 110.683 78.7656 111.028 77.9763C111.373 77.187 111.546 76.3236 111.546 75.3863C111.546 74.3996 111.127 73.5363 110.288 72.7963C109.499 72.0563 108.364 71.6863 106.884 71.6863C105.404 71.6863 104.072 72.1056 102.888 72.9443C101.753 73.7336 101.186 75.0656 101.186 76.9403C101.186 78.7656 102.247 81.3063 104.368 84.5623C105.059 84.069 105.7 83.625 106.292 83.2303C106.884 82.8356 107.501 82.3423 108.142 81.7503C108.783 81.1583 109.326 80.591 109.77 80.0483Z" fill="black"/>
</svg>
